<?xml version="1.0" encoding="utf-8"?>
<!-- Generator: Adobe Illustrator 21.0.0, SVG Export Plug-In . SVG Version: 6.00 Build 0)  -->
<svg version="1.1" id="Layer_1" xmlns="http://www.w3.org/2000/svg" xmlns:xlink="http://www.w3.org/1999/xlink" x="0px" y="0px"
	 viewBox="0 0 700 180" style="enable-background:new 0 0 700 180;" xml:space="preserve">
<g>
	<path style="fill:#67B32E;" d="M15.9,58.4c43.3,0,86.8,0,130.2,0c-1.4,2.8-2.7,5.5-4,8.2c-7.9,16.1-16.4,33.4-24.3,49.5
		c-9,0-37.1,0-40.4,0c0-12.9,0-41.6,0-42.1c-0.2,0.3-21,42.2-21,42.2s-33.6,0-40.5,0C15.9,97.6,15.9,61.8,15.9,58.4z"/>
	<path style="fill:#67B32E;" d="M108.4,8.7c0,13.8,0.1,27.9,0,41.9c-16.9,0-33.9,0-50.8,0c6.6-14,13.2-27.9,19.7-41.9
		C87.9,8.7,97.8,8.7,108.4,8.7z"/>
	<polygon style="fill-rule:evenodd;clip-rule:evenodd;fill:#67B32E;" points="170.2,8.7 139,8.7 118.7,50.6 149.9,50.6 	"/>
	<path style="fill:#FFFFFF;" d="M522.7,116.1c0-3.6,0-57.7,0-57.7s40.8-0.1,60.5-0.1c10.2,0,20.5,0,30.7,0c8.2,0,14.4,0,25.8,0.1
		c-2.7,5.6-28.3,57.7-28.3,57.7s-21.6,0-31.9,0c-0.3,0-0.5,0-0.9-0.1c-0.4-13.7-0.8-27.4-1.3-41.1c-0.1,0-0.1,0-0.2-0.1
		c-0.2,0.3-0.4,0.6-0.5,0.9c-6.8,13.1-21,40.3-21,40.3S523.5,116.1,522.7,116.1z"/>
	<path id="Blue_V_Only_2_" style="fill-rule:evenodd;clip-rule:evenodd;fill:#FFFFFF;" d="M300.1,58.4h30.5l0,25l12.7-25h31
		l-27.6,57.7h-46.6V73V58.4z M330.6,50.5h-30.5V8.7l30.5,0V50.5z M398,8.7l-31.1,0l-20.2,41.8h31.1L398,8.7z"/>
	<path style="fill:#67B32E;" d="M286.4,50.6c-27.8,0-58.6,0-84.3,0.1c2.3-9.4,4.7-19,7-28.4c5.4,0,42.9,0,63.3,0
		c8.6,0,14.6,6,16,13.9c0.6,3.4-0.1,6.7-0.9,9.9C287.2,47.6,286.8,49,286.4,50.6z"/>
	<path style="fill:#24BBE5;" d="M478.6,171.3c-1.6-6.4-4.8-19.3-4.8-19.3s-3.2,12.8-4.7,19.1c-4.3,0-8.6,0-13.1,0
		c3.8-15.5,7.6-31,11.5-46.6c0.9,0,1.7,0,2.6,0c3.2,0,10.5,0,10.5,0s3.2,13,4.8,19.4c1.2-1.6,15.1-19.4,15.1-19.4s8.8,0,13.1,0
		c-3.8,15.6-7.6,31.1-11.5,46.6c-4.4,0-8.7,0-13.1,0c1.5-6.3,4.6-19.1,4.6-19.1S483.5,164.9,478.6,171.3z"/>
	<path style="fill:#67B32E;" d="M187.7,58.4c-4.8,19.3-9.5,38.5-14.2,57.7c-9.3,0-18.4,0-27.7,0c4.7-19.3,9.5-38.5,14.2-57.7
		C169.2,58.4,178.4,58.4,187.7,58.4z"/>
	<path style="fill:#24BBE5;" d="M607.4,124.6c-1.2,4.8-1.7,7-2.9,11.7c-0.5,0-1,0-1.4,0c-8.3,0-26.1,0-26.1,0s-1.2,5-1.4,6.2
		c3,0,5.8,0,8.7,0c3.1,0,6.2,0,9.3,0c5.6,0,8.6,5.2,7.7,9.6c-0.6,2.9-1.2,5.7-2,8.5c-1.7,5.7-4.7,10.5-11.5,10.6
		c-2.5,0-31.4,0-31.6,0c0.4-1.6,2.9-12,2.9-12s17.2,0,25.2,0c0.5,0,0.9,0,1.5,0c0.3-1.2,1-4.4,1.4-5.7c-6.6,0-10.7,0-15.4,0
		c-4.2,0-5.9-0.9-7.7-3.7c-1.2-1.9-1.6-4-1.2-6.1c0.6-3.1,1.5-6.1,2.3-9.2c1.2-4.7,3.3-10,13.7-10
		C588.7,124.6,606.8,124.6,607.4,124.6z"/>
	<path style="fill:#24BBE5;" d="M522.4,124.7c12.3,0,24.4,0,36.8,0c-0.4,1.6-2.9,11.6-2.9,11.6s-20.6,0-24.4,0
		c-0.5,2-0.9,4.2-1.4,6.2c8.2,0,16.3,0,24.4,0c-0.9,3.5-2.7,10.8-2.7,10.8h-24.4c0,0-0.2,0.9-0.4,1.8c-0.2,0.9-1.1,4.2-1.2,4.5
		c7.9,0,16.2,0,24.3,0c-0.7,3-2.7,11.6-2.7,11.6s-35.2,0-36.9,0C514.7,155.7,518.6,140.1,522.4,124.7z"/>
	<path style="fill:#24BBE5;" d="M389.8,153.4c0.8-3.2,1.7-7.1,2.4-10.1c5.1,0,14.2,0,18.5,0c-0.8,3.3-1.6,6.8-2.4,10
		c-0.6,2.4-0.7,3.2-1.8,7.2c-1.4,5.3-5.2,10.6-10.6,10.6c-6.7,0-8,0-8.5,0c-7,0-6.6,0-13.6,0.1c-5.3,0-9-4.6-8-9.3
		c1-4.9,2.2-9.7,3.4-14.6c1-4,1.9-8,3-12c1.7-5.9,5.7-10.8,11.6-10.8c2.7,0,31.1,0,31.4,0c-0.6,2.8-2.3,10-2.8,12.1
		c-4.3,0-26.3,0-28.4,0c-1.8,7.3-3.9,15.7-5.7,22.9c5.6,0,10.7,0,16.1,0c1,0,1.3-0.8,1.3-1.1c0.4-1.4,0.9-3.5,1.3-5.1
		C394.5,153.4,392.2,153.4,389.8,153.4z"/>
	<path style="fill:#67B32E;" d="M189.6,50.6c-7.3,0-18.4,0-27.6,0c2.3-9.4,4.7-19,7-28.3c9.2,0,18.2,0,27.5,0
		C194.2,31.6,191.9,41.2,189.6,50.6z"/>
	<path style="fill:#24BBE5;" d="M431.3,124.6c0,0-22.4,45.6-22.8,46.6c4.3,0,13.1,0,13.1,0l2.9-6.1c0,0,12,0,12.9,0
		c0,2.1,0,4.1,0,6.1c4.4,0,8.9,0,13.1,0c0-9.1,0-31,0-46.6C448.6,124.6,431.3,124.6,431.3,124.6z M437.4,153.3c-2.3,0-4.7,0-7,0
		c0.7-1.4,4.8-9.4,7-13.8C437.4,144.1,437.4,148.7,437.4,153.3z"/>
	<g>
		<path style="fill:#FFFFFF;" d="M669.3,42.9H666V27.8h5.7c3.9,0,6.1,1.1,6.1,4.6c0,2.8-1.6,3.8-4.1,4l3.9,6.5h-3.3l-3.5-6.3h-1.5
			V42.9z M669.3,34.1h2.8c1.8,0,2.4-0.9,2.4-2c0-1.4-1-1.7-2.6-1.7h-2.7V34.1z"/>
	</g>
	<path style="fill:#FFFFFF;" d="M670.9,48.3c-7,0.3-13.2-5.7-13.1-13.1c0-6.6,5.3-13.1,13.1-13.1c7.8,0,13.5,6.6,13.2,13.8
		C683.8,42.3,678.3,48.6,670.9,48.3z M677.4,43.4c2.7-2.2,3.7-5.2,3.7-8.6c-0.1-6.4-6.3-11.2-12.5-9.6c-5.2,1.3-8.8,6.7-7.6,12.3
		c0.8,3.8,2.9,6.5,6.6,7.8C671.2,46.5,674.5,45.9,677.4,43.4L677.4,43.4z"/>
	<path style="fill:#FFFFFF;" d="M616,50.6c2.6-5.4,13.8-28.3,13.8-28.3s25.6,0,27.5,0c-0.6,1.2-13.7,28.3-13.7,28.3
		S616.3,50.6,616,50.6z"/>
	<path style="fill:#FFFFFF;" d="M603.9,50.6c-13.9,0-27.5,0-41.3,0c0.2-0.5,13.8-28.3,13.8-28.3s26.5,0,27.5,0
		C603.9,31.6,603.9,41.1,603.9,50.6z"/>
	<path style="fill:#FFFFFF;" d="M507.1,58.4c-1.8,7.4-3.6,14.6-5.4,21.9c-0.5,0-1,0-1.4,0c-15.4,0-30.8,0-46.1,0
		c-1,0-1.5,0.2-1.7,1.3c-0.4,2.1-1,4.2-1.6,6.4c16.3,0,32.6,0,48.9,0c-0.8,3.2-6.9,28.1-6.9,28.1h-76.6c0,0,2.9-12,4.4-17.9
		c3.1-12.8,9.8-39.8,9.8-39.8S506.4,58.4,507.1,58.4z"/>
	<path style="fill:#FFFFFF;" d="M432.4,50.6c1.3-5.1,2.5-10.3,3.7-15.3c1-3.9,1.9-7.9,2.9-11.8c0.2-0.9,0.3-1.3,0.3-1.3
		s34.1,0,50.5,0c8.2,0,25.5,0,26.1,0c-0.5,2-5,20.7-6.9,28.3C507.1,50.6,433.2,50.6,432.4,50.6z"/>
	<rect x="15.9" y="8.7" style="fill:#67B32E;" width="31.7" height="41.9"/>
	<path style="fill:#67B32E;" d="M227.9,58.4c-4.8,19.3-9.5,38.5-14.2,57.7c-9.3,0-18.4,0-27.7,0c4.7-19.3,9.5-38.5,14.2-57.7
		C209.4,58.4,218.5,58.4,227.9,58.4z"/>
	<path style="fill:#67B32E;" d="M284.5,58.5c-4.8,19.3-9.5,38.5-14.2,57.7c-9.3,0-18.4,0-27.7,0c4.7-19.3,9.5-38.5,14.2-57.7
		C266.1,58.5,275.2,58.5,284.5,58.5z"/>
	<path style="fill:#FFFFFF;" d="M418.1,58.4c-4.8,19.3-9.5,38.5-14.2,57.7c-9.3,0-18.4,0-27.7,0c4.7-19.3,9.5-38.5,14.2-57.7
		C399.7,58.4,408.8,58.4,418.1,58.4z"/>
	<path style="fill:#FFFFFF;" d="M419.8,50.6c-7.3,0-18.4,0-27.6,0c2.3-9.4,4.7-19,7-28.3c9.2,0,18.2,0,27.5,0
		C424.4,31.6,422.1,41.2,419.8,50.6z"/>
	<rect x="522.7" y="22.2" style="fill:#FFFFFF;" width="27.7" height="28.3"/>
</g>
</svg>
