<?xml version="1.0" encoding="utf-8"?>
<!-- Generator: Adobe Illustrator 21.1.0, SVG Export Plug-In . SVG Version: 6.00 Build 0)  -->
<!DOCTYPE svg PUBLIC "-//W3C//DTD SVG 1.1//EN" "http://www.w3.org/Graphics/SVG/1.1/DTD/svg11.dtd">
<svg version="1.1" id="Layer_1" xmlns="http://www.w3.org/2000/svg" xmlns:xlink="http://www.w3.org/1999/xlink" x="0px" y="0px"
         viewBox="0 0 512 78" enable-background="new 0 0 512 78" xml:space="preserve">
<path fill="#FFFFFF" d="M124.9,0H0v71c0,3.7,3,6.6,6.6,6.6h59.7V66.3h-55v-55h108.9v66.3h11.3v-71C131.5,3,128.5,0,124.9,0z"/>
<rect x="30.8" y="31.1" fill="#0AA4D0" width="15.4" height="15.6"/>
<rect x="85.3" y="31.1" fill="#0AA4D0" width="15.4" height="15.6"/>
<path fill="#0AA4D0" d="M187.4,21h-18.8v12.4h17.7V42h-17.7v14.1h19.5v8.7H158V12.3h29.4V21z"/>
<path fill="#0AA4D0" d="M202.9,12.3l6.8,17l6.7-17h11.6l-12.2,26l13.1,26.6h-11.9L209.3,47l-7.5,17.8h-11.6l13.1-26.6l-12.1-26
        H202.9z"/>
<path fill="#FFFFFF" d="M251.8,12.3l7.5,37.1h0.1l7.6-37.1h15.7v52.5H273V22.9h-0.1l-9.3,41.9h-8.2l-9.4-41.9h-0.1v41.9H236V12.3
        H251.8z"/>
<path fill="#FFFFFF" d="M352.2,21.6c-0.9-1.7-2.6-2.6-5-2.6c-1.3,0-2.4,0.4-3.3,1.1c-0.9,0.7-1.5,1.9-2,3.5c-0.5,1.6-0.8,3.7-1,6.3
        c-0.2,2.6-0.3,5.7-0.3,9.5c0,4,0.1,7.2,0.4,9.6c0.3,2.5,0.7,4.4,1.3,5.7c0.6,1.4,1.3,2.3,2.1,2.7c0.9,0.5,1.9,0.7,3,0.7
        c0.9,0,1.8-0.2,2.6-0.5c0.8-0.3,1.5-1,2.1-1.9c0.6-1,1.1-2.3,1.4-4c0.3-1.7,0.5-4,0.5-6.9h10.6c0,2.8-0.2,5.5-0.7,8.1
        c-0.4,2.6-1.3,4.8-2.5,6.7c-1.2,1.9-2.9,3.4-5.1,4.5c-2.2,1.1-5,1.6-8.5,1.6c-4,0-7.1-0.6-9.5-1.9c-2.4-1.3-4.2-3.1-5.4-5.5
        c-1.2-2.4-2.1-5.3-2.4-8.6c-0.4-3.3-0.6-7-0.6-11c0-4,0.2-7.6,0.6-11c0.4-3.4,1.2-6.2,2.4-8.6c1.3-2.4,3.1-4.3,5.4-5.6
        c2.4-1.3,5.5-2,9.5-2c3.8,0,6.8,0.6,8.9,1.8c2.2,1.2,3.8,2.8,4.9,4.7c1.1,1.9,1.8,3.9,2,6.1c0.3,2.2,0.4,4.2,0.4,6.1h-10.6
        C353.6,26.2,353.1,23.4,352.2,21.6z"/>
<path fill="#FFFFFF" d="M381.3,12.3v20.1h12.4V12.3h10.6v52.5h-10.6V41.5h-12.4v23.3h-10.6V12.3H381.3z"/>
<path fill="#FFFFFF" d="M412.1,12.3h10.6v52.5h-10.6V12.3z"/>
<path fill="#FFFFFF" d="M455.6,48.2h0.1v-36h9.7v52.5h-12.1l-13-36.8h-0.1v36.8h-9.7V12.3h12.2L455.6,48.2z"/>
<g>
        <path fill="#FFFFFF" d="M313.6,12.3l13.9,52.5h-11L314,53.7h-14l-2.4,11.1h-11l13.9-52.5H313.6z M312.2,45l-5.1-23.6H307L301.9,45
                H312.2z"/>
</g>
<g>
        <path fill="#FFFFFF" d="M496.1,12.3L510,64.8h-11l-2.4-11.1h-14l-2.4,11.1h-11L483,12.3H496.1z M494.7,45l-5.1-23.6h-0.1L484.4,45
                H494.7z"/>
</g>
</svg>
